<svg width="46" height="40" viewBox="0 0 46 40" fill="none" xmlns="http://www.w3.org/2000/svg">
<path d="M43.845 13.4492C43.8469 12.6568 43.6924 11.8718 43.3905 11.1392C43.0885 10.4065 42.645 9.74067 42.0854 9.1797C41.5257 8.61872 40.8609 8.17364 40.129 7.86997C39.397 7.5663 38.6124 7.41 37.82 7.41L37.066 7.40999L37.0636 7.41C35.955 7.41527 34.8563 7.20116 33.8307 6.77999C32.8063 6.35927 31.8751 5.74025 31.0906 4.95851L29.1693 2.98518L29.1693 2.98517L29.166 2.98185C28.8079 2.62095 28.3818 2.33471 27.9123 2.13973C27.4428 1.94475 26.9393 1.84491 26.4309 1.846L25.932 1.84707L43.345 13.448M43.845 13.4492L43.345 13.448M43.845 13.4492V13.448H43.345M43.845 13.4492V31.921C43.845 33.5189 43.2102 35.0514 42.0803 36.1813C40.9504 37.3112 39.4179 37.946 37.82 37.946H8.27101C6.67308 37.946 5.1406 37.3112 4.01069 36.1813C2.88079 35.0514 2.24601 33.5189 2.24601 31.921V13.422V13.4208C2.24977 11.8254 2.8862 10.2965 4.0157 9.16966C5.1452 8.04282 6.67554 7.40999 8.27101 7.41H9.02501H9.02769C10.1363 7.41595 11.2352 7.20217 12.2607 6.781C13.286 6.35994 14.2177 5.73996 15.002 4.95686L15.0013 4.95764L15.356 5.31M43.345 13.448V31.921C43.345 33.3863 42.7629 34.7916 41.7268 35.8278C40.6906 36.8639 39.2853 37.446 37.82 37.446H8.27101C6.80569 37.446 5.40038 36.8639 4.36425 35.8278C3.32811 34.7916 2.74601 33.3863 2.74601 31.921V13.422C2.74945 11.9589 3.33307 10.557 4.36884 9.52363C5.4046 8.4903 6.80794 7.90999 8.27101 7.91H9.02501C10.1997 7.9163 11.364 7.68978 12.4507 7.24351C13.5373 6.79725 14.5248 6.14008 15.356 5.31M15.356 5.31L15.0027 4.9562L16.925 3.02085M15.356 5.31L17.28 3.37299M17.28 3.37299C17.5914 3.05907 17.9621 2.81009 18.3705 2.64049C18.7788 2.47089 19.2168 2.38405 19.659 2.385V1.885H19.6595C19.1513 1.88399 18.648 1.98382 18.1787 2.17873C17.7092 2.37371 17.2831 2.65995 16.925 3.02085M17.28 3.37299L16.9253 3.02063L16.925 3.02085M17.28 3.37299L16.925 3.02085M26.932 2.38254V2.346H26.4463C26.6092 2.34635 26.7716 2.35861 26.932 2.38254ZM26.432 2.346V1.885H26.431H25.932V2.346H26.432ZM26.432 1.039H26.932V1.02623C27.3807 1.07384 27.8212 1.18592 28.2395 1.35973L28.4313 0.898L28.2395 1.35973C28.8121 1.59767 29.3321 1.94657 29.7693 2.38634C29.7693 2.38639 29.7694 2.38644 29.7694 2.38649L31.6803 4.31037L31.6827 4.31281C33.114 5.73397 35.0479 6.5335 37.0649 6.53799H37.066H37.833C39.6553 6.53799 41.403 7.2619 42.6915 8.55046C43.9801 9.83903 44.704 11.5867 44.704 13.409V31.947C44.704 33.7693 43.9801 35.517 42.6915 36.8055C41.403 38.0941 39.6553 38.818 37.833 38.818H8.27101C6.44871 38.818 4.70105 38.0941 3.41248 36.8055C2.12392 35.517 1.40001 33.7693 1.40001 31.947L1.40001 13.474L1.40001 13.4731C1.39842 12.5698 1.57497 11.675 1.91955 10.84C2.26414 10.005 2.77 9.24606 3.40819 8.60675C4.04638 7.96743 4.80437 7.46024 5.63879 7.11418C6.47321 6.76813 7.36768 6.59 8.27101 6.59001H9.02433C10.0227 6.59267 11.0117 6.39718 11.934 6.01489C12.8562 5.63262 13.6934 5.07116 14.3971 4.36303C14.3973 4.36282 14.3975 4.36261 14.3977 4.36239L16.3336 2.42654L16.3346 2.42549C16.7705 1.98705 17.2885 1.63891 17.8591 1.40099C18.4296 1.16312 19.0414 1.04011 19.6595 1.039H26.432Z" fill="#4D4D4F" stroke="white"/>
<path d="M23.0513 11.999L23.0506 11.999C20.4703 12.0063 17.9979 13.0354 16.1746 14.8613C14.3513 16.6872 13.3256 19.161 13.322 21.7413V21.742C13.322 23.6696 13.8938 25.5538 14.965 27.1564C16.0361 28.7589 17.5586 30.0077 19.3397 30.7447C21.1208 31.4817 23.0805 31.6738 24.9708 31.2968C26.8611 30.9197 28.5972 29.9905 29.9592 28.6265C31.3212 27.2626 32.2481 25.5252 32.6225 23.6344C32.9968 21.7435 32.802 19.7841 32.0624 18.004C31.3229 16.224 30.072 14.7033 28.4679 13.6344C26.8639 12.5654 24.9789 11.9963 23.0513 11.999ZM23.0514 11.153H23.052C24.4419 11.153 25.8182 11.427 27.1021 11.9593C28.3861 12.4915 29.5525 13.2717 30.5348 14.255C31.517 15.2384 32.2958 16.4058 32.8265 17.6904C33.3573 18.9749 33.6296 20.3515 33.628 21.7414V21.742C33.628 23.8369 33.0067 25.8846 31.8426 27.6262C30.6785 29.3679 29.024 30.7251 27.0884 31.5262C25.1528 32.3273 23.023 32.5362 20.9686 32.1266C18.9142 31.717 17.0275 30.7073 15.5471 29.2252C14.0667 27.743 13.0591 25.8551 12.652 23.8002C12.2448 21.7453 12.4563 19.6158 13.2596 17.6812C14.063 15.7465 15.4221 14.0936 17.1651 12.9315C18.9081 11.7695 20.9566 11.1506 23.0514 11.153Z" fill="#4D4D4F" stroke="white"/>
</svg>
